<svg width="124" height="40" viewBox="0 0 124 40" fill="none" xmlns="http://www.w3.org/2000/svg">
<path d="M13.0711 7.80859C16.6567 7.80859 19.8221 9.60328 21.7182 12.3431C19.9501 10.609 17.5249 9.54211 14.8543 9.54211C9.43983 9.54211 5.0493 13.922 5.0493 19.3228C5.0493 23.6191 7.82681 27.2672 11.6863 28.5796C11.7252 28.5927 11.8248 28.6216 11.9568 28.6559C12.3216 28.7506 12.8777 28.8441 12.9839 28.8744C12.8909 28.8659 12.4964 28.8336 12.1573 28.775C11.9224 28.7349 11.7146 28.677 11.6512 28.6684C6.52381 27.9794 2.56738 23.5902 2.56738 18.2836C2.56738 12.5004 7.27066 7.80859 13.0711 7.80859Z" fill="white"/>
<path d="M14.0925 14.0475C16.866 14.0475 19.2885 15.5573 20.5757 17.8003C20.5882 17.8214 20.6001 17.8431 20.612 17.8641C20.6265 17.8904 20.6291 17.8951 20.641 17.9233C20.6482 17.9398 20.6627 17.9806 20.6713 17.995C20.6384 17.9563 20.6133 17.9102 20.5797 17.8719C20.5625 17.8522 20.5447 17.8325 20.5268 17.8134C19.3176 16.4806 17.5699 15.6447 15.6269 15.6447C11.9714 15.6447 8.98937 18.6024 8.98937 22.2486C8.98937 25.6973 11.4905 28.5556 15.0313 28.826C15.0326 28.826 15.3275 28.851 15.3374 28.8478C15.2767 28.8695 15.059 28.8945 15.057 28.8945C14.7416 28.9359 14.4197 28.9563 14.0924 28.9563C9.96648 28.9563 6.61761 25.6196 6.61761 21.5035C6.61761 17.3874 9.96648 14.0474 14.0924 14.0474L14.0925 14.0475Z" fill="white"/>
<path d="M14.5334 3.90625e-05C22.5591 3.90625e-05 29.101 6.48406 29.0693 14.4812C29.0396 22.0215 23.4154 28.1173 16.1629 28.9176C15.8173 28.9564 15.3376 28.959 15.0776 28.959C15.0268 28.959 14.7504 28.9669 14.5393 28.9655C14.3823 28.9642 14.2787 28.9537 14.2398 28.9564C14.3328 28.9498 15.0183 28.9195 15.108 28.9109C16.6109 28.7602 18.0432 28.366 19.4418 27.7104C24.8562 25.176 26.0537 20.9665 26.0537 16.2404C26.0537 9.15738 20.2909 3.41445 13.1823 3.41445C6.07423 3.41445 0.310782 9.15738 0.310782 16.2404C0.310782 16.6648 0.400518 17.6034 0.428233 17.8811C0.432833 17.9239 0.420983 17.9476 0.422971 17.9548C0.403168 17.8706 0.382079 17.7896 0.360951 17.6974C0.126088 16.6635 6.10352e-05 15.5882 6.10352e-05 14.4812C6.10352e-05 6.48406 6.50704 0 14.5334 0L14.5334 3.90625e-05Z" fill="white"/>
<path d="M15.4763 28.8801C15.6564 28.8603 15.8392 28.8327 15.9117 28.8215C22.4557 27.8271 27.6405 22.0585 27.6405 15.5434C27.6405 7.78981 21.4199 1.59277 13.8448 1.59277C6.57779 1.59277 0.219238 7.87016 0.219238 15.3743C0.219238 16.0509 0.275333 16.7202 0.363704 17.3725C0.384832 17.5054 0.407909 17.7265 0.413171 17.7509C0.411183 17.7299 0.412509 17.6213 0.407246 17.5417C0.406583 17.5337 0.37953 16.7959 0.37953 16.3201C0.37953 9.29837 6.08689 3.41524 13.1256 3.41524C20.165 3.41524 26.1145 9.00551 26.0432 16.4899C25.9832 22.8752 21.1552 27.991 15.0072 28.8973C14.9392 28.9078 14.5335 28.942 14.3989 28.9565C14.457 28.9551 14.548 28.9532 14.6061 28.9512C14.6912 28.9479 14.7763 28.944 14.8113 28.9426C14.8752 28.9393 14.9393 28.9347 15.0033 28.9295C15.0798 28.9229 15.2797 28.9025 15.4763 28.8801H15.4763Z" fill="white"/>
<path d="M5.04954 19.3226C5.04954 13.9219 9.44006 9.54191 14.8545 9.54191C16.8001 9.54191 18.615 10.1086 20.1404 11.086C20.2736 11.1715 20.4042 11.2597 20.5329 11.3518C20.6424 11.4288 20.7493 11.5084 20.8555 11.5907C20.9789 11.6855 21.0996 11.7849 21.2177 11.8856C21.3622 12.0087 21.5785 12.208 21.7151 12.3391C21.663 12.2752 21.5449 12.1423 21.4928 12.0844C21.417 12.0002 21.3411 11.9198 21.2626 11.8382C21.1577 11.729 21.0402 11.625 20.9307 11.521C20.8271 11.4216 20.721 11.3248 20.6127 11.2307C20.5059 11.1366 20.3963 11.0451 20.2848 10.9556C18.5523 9.56559 16.3515 8.73242 13.9553 8.73242C8.37325 8.73242 3.83893 13.246 3.83893 18.8139C3.83893 23.2201 6.70087 26.9451 10.654 28.3155C11.2082 28.5076 11.7736 28.6781 12.3673 28.7715C12.4855 28.7913 12.6899 28.8321 12.8944 28.8624C12.5409 28.7821 11.792 28.611 11.6865 28.5754C11.6377 28.5583 11.5888 28.5458 11.54 28.528C7.75645 27.1743 5.04958 23.5643 5.04958 19.3226L5.04954 19.3226Z" fill="white"/>
<path d="M14.8533 14.8462C10.9734 14.8462 7.82507 17.9862 7.82507 21.8561C7.82507 25.7266 10.9734 28.8673 14.8533 28.8673C15.0228 28.8673 15.005 28.868 15.1858 28.8575C15.4226 28.8437 15.8211 28.7976 16.0494 28.7594C15.8132 28.7502 15.5843 28.7331 15.3554 28.6981C12.3654 28.2454 10.0735 25.6674 10.0735 22.5597C10.0735 19.1287 12.8602 16.3494 16.2994 16.3494C16.8536 16.3494 17.3907 16.4217 17.9019 16.5574C17.995 16.5817 18.0867 16.6087 18.1777 16.637C18.499 16.7383 18.809 16.8654 19.1052 17.0154C19.3633 17.1451 19.6106 17.2931 19.8468 17.4571C20.0151 17.5735 20.1767 17.6979 20.3324 17.8295C20.4768 17.9533 20.6161 18.0829 20.7494 18.2185C20.8542 18.3251 20.9552 18.4356 21.0515 18.5496C20.9875 18.4304 20.8845 18.3258 20.8193 18.2074C20.7771 18.1317 20.7084 18.0797 20.6734 18.0033C20.6642 17.9829 20.6411 17.9415 20.6286 17.9237C20.6121 17.9013 20.6075 17.8954 20.5923 17.873C20.5541 17.8158 20.5185 17.7592 20.4775 17.7045C20.3786 17.5709 20.2849 17.4399 20.1767 17.3136C20.0527 17.1687 19.9227 17.024 19.7874 16.889C19.668 16.7713 19.5486 16.6462 19.4206 16.5363C19.1297 16.2862 18.8348 16.0663 18.5056 15.8663C17.4408 15.2187 16.1912 14.8462 14.8533 14.8462V14.8462Z" fill="white"/>
<path d="M33.7759 8.20268H36.3142V9.70936C36.5888 9.11553 36.954 8.66475 37.4097 8.3569C37.8654 8.04834 38.3642 7.89404 38.9068 7.89404C39.2897 7.89404 39.6913 7.99721 40.1106 8.20268L39.1888 10.7871C38.8414 10.6117 38.5556 10.5229 38.3315 10.5229C37.8758 10.5229 37.4906 10.8089 37.1767 11.3817C36.8619 11.9529 36.7046 13.0751 36.7046 14.7473L36.715 15.3306V20.1698H33.7759V8.20268Z" fill="white"/>
<path d="M46.6162 10.6661C45.701 10.6661 44.9403 10.9943 44.3346 11.6505C43.7297 12.3068 43.427 13.1482 43.427 14.1748C43.427 15.2089 43.735 16.0592 44.351 16.7269C44.967 17.3936 45.7263 17.7278 46.6273 17.7278C47.5566 17.7278 48.3277 17.3997 48.9408 16.7434C49.5531 16.0871 49.8597 15.2276 49.8597 14.1635C49.8597 13.1226 49.5531 12.2798 48.9408 11.634C48.3278 10.989 47.5536 10.6661 46.6162 10.6661H46.6162ZM49.7298 8.20268H52.692V20.1699H49.7298V18.9048C49.1524 19.4625 48.5727 19.8636 47.9916 20.1089C47.4097 20.3551 46.7796 20.4776 46.1005 20.4776C44.5759 20.4776 43.2578 19.8779 42.146 18.6789C41.0335 17.4808 40.4775 15.9899 40.4775 14.2077C40.4775 12.36 41.0156 10.8458 42.0918 9.6649C43.168 8.48482 44.4751 7.89404 46.0144 7.89404C46.7217 7.89404 47.386 8.03029 48.0072 8.30119C48.6285 8.57209 49.2029 8.97928 49.7299 9.5219V8.2026L49.7298 8.20268Z" fill="white"/>
<path d="M61.1823 10.6665C60.2493 10.6665 59.4759 10.9894 58.8613 11.6344C58.2461 12.2802 57.9388 13.1231 57.9388 14.1639C57.9388 15.228 58.2461 16.0875 58.8613 16.7438C59.4759 17.4001 60.2493 17.7282 61.1823 17.7282C62.0863 17.7282 62.8471 17.3941 63.4653 16.7273C64.0843 16.0596 64.3931 15.2093 64.3931 14.1752C64.3931 13.1486 64.0896 12.3072 63.4816 11.6509C62.8745 10.9946 62.1078 10.6665 61.1823 10.6665ZM58.0691 8.20309V9.52238C58.6042 8.97977 59.1831 8.57262 59.8051 8.30168C60.4271 8.03074 61.0921 7.89453 61.8009 7.89453C63.341 7.89453 64.6502 8.48531 65.7279 9.66539C66.8049 10.8463 67.3437 12.3605 67.3437 14.2082C67.3437 15.9903 66.787 17.4813 65.6737 18.6794C64.5596 19.8783 63.24 20.4781 61.714 20.4781C61.0341 20.4781 60.4018 20.3555 59.8154 20.1094C59.2298 19.8641 58.6479 19.4629 58.069 18.9052V24.5475H55.1299V8.20316H58.069L58.0691 8.20309Z" fill="white"/>
<path d="M68.9146 20.1699H71.8761V8.20264H68.9146V20.1699Z" fill="white"/>
<path d="M79.6085 10.6664C78.6935 10.6664 77.9327 10.9946 77.327 11.6509C76.722 12.3071 76.4192 13.1486 76.4192 14.1751C76.4192 15.2092 76.7272 16.0596 77.3432 16.7272C77.9604 17.394 78.718 17.7282 79.62 17.7282C80.5488 17.7282 81.3203 17.4 81.9329 16.7437C82.5455 16.0874 82.8517 15.228 82.8517 14.1638C82.8517 13.1229 82.5455 12.28 81.9329 11.6343C81.3203 10.9893 80.545 10.6664 79.6085 10.6664ZM82.7213 3.85066H85.6836V20.1702H82.7213V18.9051C82.144 19.4628 81.5637 19.8639 80.9826 20.1092C80.4007 20.3553 79.7713 20.478 79.0919 20.478C77.5674 20.478 76.2491 19.8781 75.1373 18.6793C74.0247 17.4811 73.4688 15.9902 73.4688 14.208C73.4688 12.3603 74.0069 10.8461 75.0832 9.66524C76.1593 8.48516 77.4661 7.89438 79.0059 7.89438C79.713 7.89438 80.3769 8.03055 80.9987 8.30153C81.6197 8.57246 82.1939 8.97961 82.7213 9.52223V3.85059L82.7213 3.85066Z" fill="white"/>
<path d="M93.8974 9.40137C92.6354 9.40137 91.55 9.87399 90.6418 10.82C89.7353 11.7661 89.2816 12.91 89.2816 14.2519C89.2816 15.1174 89.4888 15.9242 89.9026 16.6715C90.3156 17.4196 90.8744 17.9976 91.5791 18.4048C92.2823 18.8112 93.056 19.0144 93.8974 19.0144C94.7395 19.0144 95.5117 18.8112 96.2164 18.4048C96.9195 17.9976 97.4784 17.4196 97.8921 16.6715C98.3059 15.9242 98.5132 15.1174 98.5132 14.2519C98.5132 12.91 98.0572 11.7661 97.1468 10.82C96.2356 9.87399 95.1524 9.40137 93.8973 9.40137H93.8974ZM93.9028 7.89453C95.7213 7.89453 97.2282 8.56137 98.4234 9.89653C99.5103 11.1134 100.054 12.5547 100.054 14.2187C100.054 15.891 99.4796 17.3518 98.3305 18.6027C97.1829 19.8527 95.7074 20.4781 93.9028 20.4781C92.0919 20.4781 90.6119 19.8527 89.4635 18.6027C88.3159 17.3518 87.7417 15.891 87.7417 14.2187C87.7417 12.5622 88.2852 11.1248 89.3714 9.90707C90.5666 8.56516 92.0781 7.89453 93.9028 7.89453Z" fill="white"/>
<path d="M108.404 9.37945C107.091 9.37945 105.985 9.84453 105.087 10.7748C104.188 11.705 103.739 12.8625 103.739 14.2465C103.739 15.1549 103.94 15.9722 104.34 16.697C104.741 17.4225 105.314 17.9968 106.061 18.422C106.808 18.8464 107.596 19.0587 108.426 19.0587C109.242 19.0587 110.007 18.845 110.725 18.4167C111.443 17.9878 112.015 17.3894 112.441 16.6195C112.866 15.8511 113.079 15.0451 113.079 14.2029C113.079 13.3532 112.868 12.5471 112.447 11.7855C112.024 11.0246 111.456 10.4323 110.742 10.0109C110.028 9.59016 109.248 9.37949 108.404 9.37949L108.404 9.37945ZM102.329 8.20309H103.848V10.4022C104.447 9.56684 105.137 8.93992 105.918 8.52145C106.699 8.10375 107.568 7.89453 108.529 7.89453C110.205 7.89453 111.639 8.50715 112.831 9.7316C114.023 10.9561 114.62 12.4298 114.62 14.1532C114.62 15.9135 114.029 17.4074 112.847 18.6357C111.667 19.864 110.242 20.478 108.573 20.478C107.633 20.478 106.77 20.2794 105.983 19.8835C105.195 19.4884 104.484 18.8976 103.848 18.1127V24.5474H102.329V8.20305L102.329 8.20309Z" fill="white"/>
<path d="M122.84 9.51113L121.863 10.5339C121.05 9.73469 120.257 9.33582 119.481 9.33582C118.988 9.33582 118.565 9.50059 118.215 9.83027C117.863 10.1599 117.687 10.5452 117.687 10.9847C117.687 11.3738 117.832 11.7441 118.122 12.0963C118.411 12.4553 119.02 12.8768 119.948 13.3607C121.078 13.9552 121.847 14.5272 122.252 15.0766C122.651 15.6343 122.85 16.2612 122.85 16.9582C122.85 17.9411 122.51 18.7727 121.829 19.4545C121.148 20.1371 120.297 20.4781 119.276 20.4781C118.595 20.4781 117.945 20.3275 117.326 20.0266C116.706 19.7262 116.194 19.3116 115.788 18.784L116.744 17.6836C117.519 18.5717 118.341 19.0143 119.211 19.0143C119.82 19.0143 120.338 18.8171 120.766 18.4205C121.194 18.0246 121.407 17.5595 121.407 17.0237C121.407 16.5841 121.267 16.1913 120.983 15.8466C120.701 15.5095 120.063 15.0842 119.071 14.5709C118.005 14.0132 117.28 13.4638 116.897 12.9212C116.513 12.3786 116.32 11.7592 116.32 11.0623C116.32 10.1532 116.626 9.39754 117.239 8.79613C117.85 8.19484 118.624 7.89453 119.558 7.89453C120.645 7.89453 121.739 8.43344 122.84 9.51113Z" fill="white"/>
<path d="M68.9146 6.53006H71.8761V3.85303H68.9146V6.53006Z" fill="white"/>
<path d="M34.502 30.9321H36.5539C36.9367 30.9321 37.3194 30.9885 37.7023 31.1013C38.0851 31.2142 38.4313 31.3919 38.7409 31.6344C39.0505 31.877 39.301 32.1873 39.4924 32.5652C39.6838 32.9431 39.7795 33.3973 39.7795 33.9275C39.7795 34.4408 39.6838 34.8865 39.4924 35.2644C39.301 35.6367 39.0505 35.947 38.7409 36.1952C38.4313 36.4378 38.0851 36.6212 37.7023 36.7452C37.3194 36.8637 36.9367 36.9229 36.5539 36.9229H34.502V30.9321ZM35.3379 36.1867H36.385C36.7452 36.1867 37.0773 36.136 37.3814 36.0344C37.691 35.9329 37.9556 35.7862 38.1751 35.5944C38.4003 35.4027 38.5748 35.1657 38.6986 34.8837C38.8224 34.6016 38.8844 34.2829 38.8844 33.9275C38.8844 33.5552 38.8225 33.228 38.6986 32.946C38.5748 32.6639 38.4003 32.4298 38.1751 32.2437C37.9556 32.0519 37.691 31.908 37.3814 31.8121C37.0774 31.7106 36.7452 31.6598 36.385 31.6598H35.3379V36.1867ZM42.5293 36.9229H41.6933V30.9321H43.6101C43.8972 30.9321 44.1702 30.9631 44.4292 31.0252C44.6881 31.0816 44.9133 31.1747 45.1047 31.3044C45.3017 31.4342 45.4565 31.6062 45.5692 31.8206C45.6817 32.0293 45.738 32.286 45.738 32.5906C45.738 33.0306 45.6029 33.386 45.3327 33.6568C45.0625 33.9276 44.7134 34.0996 44.2856 34.1729L45.9576 36.9229H44.9443L43.4243 34.2576H42.5293V36.9229V36.9229ZM42.5293 33.5552H43.4919C43.6889 33.5552 43.8719 33.5383 44.0408 33.5044C44.2096 33.4706 44.356 33.417 44.4799 33.3437C44.6093 33.2647 44.7106 33.166 44.7838 33.0475C44.857 32.9234 44.8936 32.7711 44.8936 32.5906C44.8936 32.41 44.857 32.2606 44.7838 32.1421C44.7106 32.018 44.6121 31.9192 44.4883 31.8459C44.37 31.7726 44.2293 31.7219 44.0661 31.6936C43.9028 31.6598 43.7311 31.6428 43.551 31.6428H42.5293V33.5551L42.5293 33.5552ZM48.4837 36.9229H47.6477V30.9321H48.4837V36.9229ZM52.6921 35.8398H52.7174L54.516 30.9321H55.4195L53.0721 36.9229H52.2952L49.9647 30.9321H50.8935L52.6921 35.8398ZM57.729 36.1783H60.8533V36.9229H56.893V30.9321H60.7266V31.6683H57.729V33.4621H60.5493V34.1813H57.729V36.1783V36.1783ZM66.9456 35.7213H66.9625V30.9321H67.7985V36.9229H66.743L63.5849 32.0321H63.568V36.9229H62.7321V30.9321H63.8213L66.9456 35.7213ZM72.901 30.9321H74.9614C75.1865 30.9321 75.4117 30.9575 75.6369 31.0083C75.8621 31.0591 76.0618 31.1437 76.2364 31.2621C76.4165 31.3806 76.56 31.5358 76.667 31.7275C76.7795 31.9193 76.8355 32.159 76.8355 32.4467C76.8355 32.7796 76.7402 33.0588 76.5488 33.2844C76.3574 33.5101 76.104 33.6652 75.7888 33.7498V33.7667C75.9802 33.7893 76.1575 33.8401 76.3208 33.919C76.4841 33.9924 76.6248 34.0911 76.743 34.2152C76.8609 34.3393 76.9514 34.486 77.0129 34.6552C77.0804 34.8244 77.1142 35.0135 77.1142 35.2221C77.1142 35.5098 77.0551 35.7608 76.9369 35.9752C76.8186 36.1896 76.6586 36.3673 76.4559 36.5083C76.2533 36.6437 76.014 36.7481 75.7382 36.8214C75.468 36.8891 75.1781 36.9229 74.8685 36.9229H72.9011V30.9321H72.901ZM73.737 33.4621H74.8262C74.9838 33.4621 75.133 33.4452 75.2738 33.4113C75.4201 33.3719 75.5468 33.3154 75.6538 33.2421C75.7607 33.1631 75.8451 33.0673 75.9071 32.9544C75.969 32.836 76 32.695 76 32.5313C76 32.2098 75.8817 31.9813 75.6453 31.846C75.4089 31.7049 75.0908 31.6344 74.6911 31.6344H73.7369V33.4621H73.737ZM73.737 36.2121H74.784C74.9585 36.2121 75.133 36.1981 75.3075 36.1698C75.4876 36.136 75.6481 36.0796 75.7888 36.0006C75.9351 35.9216 76.0506 35.8173 76.135 35.6875C76.2251 35.5521 76.2702 35.3829 76.2702 35.1798C76.2702 34.8244 76.1491 34.5678 75.9071 34.4098C75.665 34.2519 75.316 34.1729 74.86 34.1729H73.737V36.2121ZM81.4168 36.9229H80.5724V34.3337L78.3347 30.9322H79.3649L81.0199 33.6399L82.6834 30.9322H83.6545L81.4168 34.3337V36.9229ZM88.6318 36.9229H87.7959V30.9321H88.6318V36.9229ZM93.9461 35.5352H93.963L95.7278 30.9321H97.0282V36.9229H96.1922V31.9137H96.1754L94.191 36.9229H93.659L91.6831 31.9137H91.6663V36.9229H90.8556V30.9321H92.156L93.9461 35.5352ZM99.2513 30.9321H101.075C101.396 30.9321 101.689 30.966 101.953 31.0337C102.217 31.0957 102.443 31.1944 102.629 31.3298C102.815 31.4652 102.958 31.6373 103.059 31.846C103.161 32.0547 103.211 32.3058 103.211 32.5991C103.211 32.8981 103.155 33.1547 103.043 33.3691C102.935 33.5835 102.783 33.7583 102.587 33.8937C102.395 34.0291 102.164 34.1306 101.894 34.1983C101.629 34.2604 101.342 34.2914 101.033 34.2914H100.087V36.9229H99.2513V30.9321ZM100.087 33.5806H100.974C101.177 33.5806 101.362 33.5637 101.531 33.5298C101.705 33.4904 101.854 33.4339 101.979 33.3606C102.102 33.2816 102.198 33.1801 102.266 33.056C102.333 32.9319 102.367 32.7796 102.367 32.5991C102.367 32.4185 102.33 32.2691 102.257 32.1506C102.19 32.0265 102.094 31.9278 101.97 31.8544C101.852 31.7755 101.709 31.7219 101.54 31.6937C101.371 31.6598 101.187 31.6429 100.991 31.6429H100.087V33.5806L100.087 33.5806ZM104.782 36.9229H103.853L106.446 30.9321H107.205L109.772 36.9229H108.827L108.219 35.4506H105.382L104.782 36.9229H104.782ZM105.677 34.7144H107.915L106.8 31.9052L105.677 34.7144ZM116.285 35.9921C116.049 36.3137 115.742 36.576 115.365 36.779C114.988 36.9765 114.535 37.0752 114.005 37.0752C113.549 37.0752 113.127 36.999 112.739 36.8467C112.356 36.6888 112.024 36.4716 111.742 36.1952C111.467 35.9131 111.25 35.5804 111.092 35.1967C110.935 34.8075 110.856 34.3816 110.856 33.919C110.856 33.4508 110.935 33.025 111.092 32.6413C111.256 32.2521 111.478 31.9221 111.759 31.6513C112.046 31.375 112.384 31.1606 112.772 31.0083C113.161 30.856 113.583 30.7798 114.039 30.7798C114.242 30.7798 114.447 30.7996 114.655 30.839C114.864 30.8785 115.064 30.9377 115.255 31.0167C115.447 31.0957 115.621 31.1944 115.778 31.3129C115.937 31.4257 116.072 31.5583 116.184 31.7106L115.525 32.2183C115.379 32.0152 115.171 31.8488 114.9 31.719C114.636 31.5837 114.349 31.516 114.039 31.516C113.691 31.516 113.375 31.5808 113.093 31.7106C112.818 31.8346 112.581 32.0067 112.384 32.2267C112.187 32.4467 112.035 32.7034 111.928 32.9967C111.821 33.2844 111.768 33.5919 111.768 33.919C111.768 34.2575 111.818 34.5734 111.92 34.8667C112.027 35.1601 112.176 35.4167 112.367 35.6367C112.564 35.8511 112.801 36.0204 113.076 36.1444C113.358 36.2685 113.671 36.3306 114.014 36.3306C114.351 36.3306 114.659 36.2629 114.934 36.1275C115.21 35.9921 115.438 35.7947 115.618 35.5352L116.285 35.9921H116.285ZM119.951 36.9229H119.115V31.6683H117.198V30.9321H121.867V31.6683H119.951V36.9229H119.951Z" fill="white"/>
</svg>
